<svg width="143" height="141" viewBox="0 0 143 141" fill="none" xmlns="http://www.w3.org/2000/svg">
<path d="M60.9495 40.4951C61.557 38.4233 63.4575 37.0001 65.6165 37.0001H74.4672C75.108 37.0001 75.5737 37.6089 75.406 38.2274L63.5216 82.0445C62.9469 84.1637 61.0235 85.6349 58.8277 85.6349H52.195C50.0013 85.6349 48.0791 84.1663 47.5025 82.0498L43.4941 67.336L47.1224 68.7745C49.7838 69.8297 52.7763 68.3691 53.5819 65.6219L60.9495 40.4951Z" fill="url(#paint0_linear_15_446)"/>
<path d="M43.2132 64.5478C49.6163 62.8321 44.3336 53.271 51.7005 49.8473C43.557 50.3725 43.4031 39.6443 37 41.36L43.2132 64.5478Z" fill="url(#paint1_linear_15_446)"/>
<path d="M81.5431 100.505C80.9356 102.577 79.035 104 76.8761 104L68.0253 104C67.3845 104 66.9188 103.391 67.0866 102.773L78.9709 58.9555C79.5457 56.8364 81.4691 55.3652 83.6648 55.3652L90.2976 55.3652C92.4913 55.3652 94.4135 56.8337 94.9901 58.9503L98.9985 73.664L95.3702 72.2255C92.7088 71.1704 89.7162 72.6309 88.9107 75.3782L81.5431 100.505Z" fill="url(#paint2_linear_15_446)"/>
<path d="M99.2794 76.4524C92.8763 78.1681 98.1589 87.7292 90.7921 91.1529C98.9356 90.6277 99.0894 101.356 105.493 99.6402L99.2794 76.4524Z" fill="url(#paint3_linear_15_446)"/>
<defs>
<linearGradient id="paint0_linear_15_446" x1="59.6165" y1="37.0001" x2="59.6165" y2="85.6349" gradientUnits="userSpaceOnUse">
<stop stop-color="#3064C5"/>
<stop offset="1" stop-color="#002E84"/>
</linearGradient>
<linearGradient id="paint1_linear_15_446" x1="44.4189" y1="41.174" x2="44.4189" y2="64.5478" gradientUnits="userSpaceOnUse">
<stop stop-color="#3064C5"/>
<stop offset="1" stop-color="#002E84"/>
</linearGradient>
<linearGradient id="paint2_linear_15_446" x1="82.8761" y1="104" x2="82.8761" y2="55.3652" gradientUnits="userSpaceOnUse">
<stop stop-color="#3064C5"/>
<stop offset="1" stop-color="#002E84"/>
</linearGradient>
<linearGradient id="paint3_linear_15_446" x1="98.0736" y1="99.8263" x2="98.0737" y2="76.4524" gradientUnits="userSpaceOnUse">
<stop stop-color="#3064C5"/>
<stop offset="1" stop-color="#002E84"/>
</linearGradient>
</defs>
</svg>
